<mxfile host="65bd71144e">
    <diagram id="fPD0JQ9eiup4xuwaTObZ" name="Página-1">
        <mxGraphModel dx="576" dy="461" grid="1" gridSize="10" guides="1" tooltips="1" connect="1" arrows="1" fold="1" page="1" pageScale="1" pageWidth="827" pageHeight="1169" math="0" shadow="0">
            <root>
                <mxCell id="0"/>
                <mxCell id="1" parent="0"/>
                <mxCell id="7" value="" style="edgeStyle=none;html=1;" edge="1" parent="1" source="2" target="4">
                    <mxGeometry relative="1" as="geometry"/>
                </mxCell>
                <mxCell id="2" value="Inicio" style="ellipse;whiteSpace=wrap;html=1;strokeColor=#003333;fillColor=#345157;fontStyle=1;fontSize=21;fontFamily=Georgia;" vertex="1" parent="1">
                    <mxGeometry x="220" y="20" width="140" height="90" as="geometry"/>
                </mxCell>
                <mxCell id="9" value="" style="edgeStyle=none;html=1;" edge="1" parent="1" source="4" target="8">
                    <mxGeometry relative="1" as="geometry"/>
                </mxCell>
                <mxCell id="4" value="r" style="shape=parallelogram;perimeter=parallelogramPerimeter;whiteSpace=wrap;html=1;fixedSize=1;strokeColor=#00CCCC;labelBackgroundColor=none;fillColor=#456B73;fontFamily=Georgia;fontSize=19;" vertex="1" parent="1">
                    <mxGeometry x="230" y="140" width="120" height="60" as="geometry"/>
                </mxCell>
                <mxCell id="14" value="" style="edgeStyle=none;html=1;fontFamily=Tahoma;fontSize=15;fontColor=default;" edge="1" parent="1" source="8" target="13">
                    <mxGeometry relative="1" as="geometry"/>
                </mxCell>
                <mxCell id="8" value="&lt;div style=&quot;text-align: start; font-size: 15px;&quot;&gt;&lt;span style=&quot;font-size: 15px;&quot;&gt;P= 2πr&lt;/span&gt;&lt;/div&gt;&lt;span style=&quot;font-size: 15px; text-align: start;&quot;&gt;A= πr&lt;sup style=&quot;font-size: 15px;&quot;&gt;2&lt;/sup&gt;&lt;/span&gt;" style="whiteSpace=wrap;html=1;fillColor=#456B73;strokeColor=#00CCCC;verticalAlign=middle;fontColor=default;labelBackgroundColor=none;labelBorderColor=none;fontFamily=Tahoma;fontSize=15;" vertex="1" parent="1">
                    <mxGeometry x="230" y="240" width="120" height="60" as="geometry"/>
                </mxCell>
                <mxCell id="13" value="P, A" style="shape=document;whiteSpace=wrap;html=1;boundedLbl=1;labelBackgroundColor=none;labelBorderColor=none;fillStyle=auto;strokeColor=#00CCCC;fontFamily=Tahoma;fontSize=15;fontColor=default;fillColor=#456B73;" vertex="1" parent="1">
                    <mxGeometry x="230" y="330" width="120" height="60" as="geometry"/>
                </mxCell>
                <mxCell id="15" value="FIN" style="ellipse;whiteSpace=wrap;html=1;labelBackgroundColor=none;labelBorderColor=none;fillStyle=auto;strokeColor=#003333;fontFamily=Tahoma;fontSize=15;fontColor=default;fillColor=#2E474D;" vertex="1" parent="1">
                    <mxGeometry x="230" y="420" width="120" height="80" as="geometry"/>
                </mxCell>
            </root>
        </mxGraphModel>
    </diagram>
</mxfile>